<?xml version="1.0" standalone="no"?>
<!DOCTYPE svg PUBLIC "-//W3C//DTD SVG 20010904//EN"
 "http://www.w3.org/TR/2001/REC-SVG-20010904/DTD/svg10.dtd">
<svg version="1.0" xmlns="http://www.w3.org/2000/svg"
 width="700.000000pt" height="700.000000pt" viewBox="0 0 700.000000 700.000000"
 preserveAspectRatio="xMidYMid meet">
<metadata>
Created by potrace 1.11, written by Peter Selinger 2001-2013
</metadata>
<g transform="translate(0.000000,700.000000) scale(0.100000,-0.100000)"
fill="#000000" stroke="none">
<path d="M3040 4202 c-421 -207 -679 -337 -760 -382 -144 -80 -282 -162 -278
-165 7 -8 215 48 243 65 48 29 325 164 385 188 116 45 286 84 430 98 36 3 97
17 135 31 93 34 178 52 245 54 l55 0 -164 80 c-90 43 -171 79 -180 78 -9 0
-59 -21 -111 -47z"/>
<path d="M3838 4145 c-255 -89 -1018 -439 -1063 -487 -7 -8 -5 -9 7 -5 9 3 54
11 100 18 64 9 122 28 253 84 198 85 289 114 440 145 101 21 120 22 225 12
122 -12 199 -6 325 23 72 17 179 15 289 -6 27 -5 51 -7 53 -5 7 7 -494 256
-514 256 -10 0 -62 -16 -115 -35z"/>
<path d="M4585 3853 c-122 -30 -622 -209 -612 -219 9 -9 161 29 242 60 115 44
224 67 267 56 18 -4 65 -20 103 -35 66 -25 77 -27 177 -21 93 6 115 4 168 -15
34 -11 63 -19 66 -17 2 3 -20 17 -48 33 -29 16 -108 59 -176 97 -117 65 -140
72 -187 61z"/>
<path d="M1660 3548 c-91 -46 -146 -173 -137 -312 11 -168 53 -243 154 -272
140 -41 261 25 309 168 24 72 16 247 -13 304 -24 45 -91 110 -129 124 -46 18
-136 12 -184 -12z m141 -145 c10 -12 14 -49 14 -138 0 -107 -3 -126 -19 -144
-26 -29 -52 -26 -73 6 -27 41 -26 242 1 272 23 25 58 27 77 4z"/>
<path d="M4163 3553 c-53 -18 -107 -79 -129 -146 -13 -39 -15 -72 -11 -151 3
-56 11 -115 17 -133 10 -29 8 -35 -24 -81 -20 -27 -36 -59 -36 -71 0 -17 6
-21 35 -21 19 0 35 -4 35 -10 0 -17 30 -11 53 11 21 19 21 21 5 33 -10 7 -18
23 -18 35 l0 22 31 -23 c23 -18 47 -24 106 -27 99 -4 145 10 198 64 54 54 68
99 68 225 1 77 -4 104 -22 145 -27 61 -44 80 -100 117 -37 23 -55 28 -105 27
-34 0 -80 -7 -103 -16z m131 -145 c27 -43 25 -224 -2 -258 -24 -29 -64 -21
-80 15 -15 33 -16 200 -1 228 23 43 60 50 83 15z m-244 -398 c0 -11 -7 -20
-15 -20 -13 0 -13 3 -3 20 7 11 14 20 15 20 2 0 3 -9 3 -20z"/>
<path d="M4685 3558 c-96 -34 -144 -118 -152 -266 -6 -108 3 -151 43 -215 77
-119 259 -151 349 -62 46 46 65 111 65 217 l0 88 -110 0 -110 0 0 -60 c0 -57
1 -60 25 -60 19 0 25 -5 25 -21 0 -37 -19 -59 -50 -59 -45 0 -55 28 -55 155 0
71 5 118 13 133 18 31 65 30 89 -3 l18 -25 65 21 c36 12 69 25 73 29 13 11
-17 64 -53 93 -52 44 -162 60 -235 35z"/>
<path d="M2052 3273 l3 -288 88 -3 87 -3 1 108 0 108 40 -102 40 -103 95 0
c52 0 94 2 94 5 0 3 -27 59 -60 125 -33 66 -60 121 -60 123 0 1 15 10 33 20
105 58 98 205 -13 267 -41 23 -57 25 -198 28 l-152 4 2 -289z m226 151 c29
-20 30 -76 2 -104 -33 -33 -40 -24 -40 50 0 39 3 70 8 70 4 0 18 -7 30 -16z"/>
<path d="M2512 3488 l3 -73 46 -3 c45 -3 47 -4 53 -40 3 -20 6 -112 6 -204 l0
-168 90 0 90 0 0 211 0 211 50 -7 50 -7 0 76 0 76 -195 0 -196 0 3 -72z"/>
<path d="M2950 3285 l0 -275 50 0 50 0 0 -40 0 -40 60 0 c47 0 60 3 60 15 0
10 -11 15 -35 15 -24 0 -35 5 -35 15 0 10 10 15 30 15 23 0 30 4 30 20 0 13
-7 20 -20 20 -11 0 -20 5 -20 10 0 6 12 10 26 10 33 0 30 33 -4 38 -19 3 -22
9 -22 52 0 69 6 80 47 80 l35 0 -2 -97 c-4 -127 -6 -120 35 -133 49 -16 45
-34 -5 -26 -35 5 -40 4 -40 -13 0 -14 10 -21 35 -25 20 -4 45 -4 55 -1 26 8
43 40 35 65 -6 17 -2 20 29 20 35 0 36 -1 36 -40 0 -33 3 -40 20 -40 18 0 20
7 20 60 0 57 1 60 25 60 18 0 25 5 25 20 0 17 -7 20 -45 20 l-45 0 0 235 0
235 -90 0 -90 0 0 -100 0 -100 -34 0 -34 0 -7 100 -8 100 -83 0 -84 0 0 -275z"/>
<path d="M3680 3285 c0 -219 3 -275 13 -275 9 0 12 -11 9 -35 -4 -29 0 -36 22
-46 18 -8 36 -9 58 -3 30 9 33 14 33 47 0 32 3 37 23 37 19 0 21 -3 11 -19
-24 -38 23 -80 76 -67 33 8 53 49 35 71 -10 12 -10 15 4 15 13 0 16 12 16 65
l0 65 -60 0 -60 0 -2 208 -3 207 -87 3 -88 3 0 -276z m100 -310 c0 -8 -9 -15
-20 -15 -11 0 -20 7 -20 15 0 8 9 15 20 15 11 0 20 -7 20 -15z m140 0 c0 -8
-7 -15 -15 -15 -8 0 -15 7 -15 15 0 8 7 15 15 15 8 0 15 -7 15 -15z"/>
<path d="M1030 3235 c0 -300 1 -315 19 -315 10 0 46 3 80 6 l61 7 0 136 1 136
52 -135 52 -135 40 3 c22 1 61 5 88 8 l47 6 0 299 0 299 -79 0 -78 0 -7 -31
c-3 -17 -6 -82 -7 -143 l-1 -111 -46 143 -46 142 -88 0 -88 0 0 -315z"/>
<path d="M5072 3268 c-39 -156 -68 -285 -66 -288 3 -2 39 -6 81 -8 82 -5 93 1
93 51 0 26 1 27 60 27 l60 0 0 -32 c0 -52 10 -58 100 -65 l83 -6 -7 29 c-4 16
-35 144 -67 284 -33 140 -62 263 -65 273 -5 15 -19 17 -103 17 l-99 0 -70
-282z m203 -65 c6 -33 5 -33 -33 -33 l-39 0 13 78 c27 159 26 156 40 67 7 -44
16 -95 19 -112z"/>
<path d="M5510 3252 l0 -300 23 -6 c12 -3 48 -6 80 -6 l57 0 0 158 1 157 52
-160 c59 -180 51 -171 165 -174 l52 -1 0 315 0 315 -75 0 -74 0 -3 -157 -3
-158 -46 155 -46 155 -92 3 -91 3 0 -299z"/>
<path d="M613 3276 l-49 -49 47 -47 48 -48 49 49 49 49 -47 48 -48 47 -49 -49z"/>
<path d="M6293 3277 l-48 -49 47 -47 48 -48 49 48 48 49 -47 48 -48 47 -49
-48z"/>
<path d="M3582 3083 c-27 -5 -26 -40 1 -35 14 2 17 -5 17 -43 0 -38 -3 -45
-20 -45 -11 0 -20 -7 -20 -15 0 -12 13 -15 60 -15 47 0 60 3 60 15 0 8 -9 15
-20 15 -18 0 -20 7 -20 65 0 70 1 69 -58 58z"/>
<path d="M1873 2773 c-484 -2 -743 -7 -743 -13 0 -7 305 -10 885 -10 780 0
885 2 885 15 0 13 -21 15 -142 13 -79 -2 -477 -4 -885 -5z"/>
<path d="M4793 2773 c-484 -2 -743 -7 -743 -13 0 -7 305 -10 885 -10 780 0
885 2 885 15 0 13 -21 15 -142 13 -79 -2 -477 -4 -885 -5z"/>
</g>
</svg>
